<?xml version="1.0" ?><!DOCTYPE svg  PUBLIC '-//W3C//DTD SVG 1.1//EN'  'http://www.w3.org/Graphics/SVG/1.1/DTD/svg11.dtd'><svg width="40px" height="40px" enable-background="new 0 0 512 512" id="Layer_1" version="1.1" viewBox="0 0 512 512" xml:space="preserve" xmlns="http://www.w3.org/2000/svg" xmlns:xlink="http://www.w3.org/1999/xlink"><g><path d="M256.8,5c74.3,0,148.6,0,222.9,0C498.9,5,511,17,511,36.1c0,147.3,0,294.6,0,441.9c0,18.8-12.1,31-30.8,31   c-148.8,0-297.6,0-446.4,0C15.3,509,3,496.8,3,478.4C3,330.8,3,183.2,3,35.5C3,17.2,15.3,5,33.8,5C108.1,5,182.5,5,256.8,5z    M257,495c74,0,148,0,222,0c12.3,0,18-5.7,18-18c0-146.7,0-293.3,0-440c0-12.3-5.7-18-18-18c-148,0-296,0-444,0   c-12.3,0-18,5.7-18,18c0,146.7,0,293.3,0,440c0,12.3,5.7,18,18,18C109,495,183,495,257,495z"/><path d="M114.4,150.4c95.2,0,190.1,0,285.4,0c0,71,0,141.9,0,213.2c-94.9,0-189.9,0-285.4,0C114.4,292.8,114.4,221.9,114.4,150.4z    M359,361.4c0-13.4,0.1-26.3-0.1-39.3c0-1.3-1.4-2.9-2.6-3.7c-25.9-18.4-51.8-36.8-78.1-55.3c-6.8,5.9-13.5,11.7-20.4,17.7   c-6.4-5.4-12.7-10.4-18.6-15.8c-3-2.7-4.8-3.1-8.3-0.3c-21.9,17.9-43.9,35.7-66.2,53.2c-5,3.9-7,7.8-6.7,14.1   c0.5,9.7,0.1,19.5,0.1,29.6C225.4,361.4,291.8,361.4,359,361.4z M345,153.9c-0.2-0.4-0.4-0.8-0.6-1.2c-57.4,0-114.9,0-171.5,0   c27.8,28.2,55.8,56.6,84.7,85.9C286.9,210.3,315.9,182.1,345,153.9z M358.6,312.3c0-40,0-79.2,0-119.1   c-25.6,22.2-50.7,43.9-76,65.9C308.3,277.1,333.2,294.5,358.6,312.3z M230.5,257.5c-24-20.4-47.4-40.3-71.8-61c0,40,0,78.7,0,118.4   C182.9,295.5,206.4,276.8,230.5,257.5z"/></g></svg>